<svg viewBox="34.56 330.48 1034.6399999999999 419.04" xmlns="http://www.w3.org/2000/svg" data-name="Capa 1" id="Capa_1" style="max-height: 500px" width="1034.6399999999999" height="419.04">
  <defs>
    <style>
      .cls-1 {
        fill: #FFFFFF;
      }
    </style>
  </defs>
  <polygon points="355.59 494.62 342.63 509.73 224.04 509.73 269.13 403.81 160.59 524.87 329.66 524.87 257.8 608.7 148.07 736.73 182.22 600.54 182.22 600.53 182.06 600.53 185.89 585.38 57.27 585.38 72.4 570.26 223.73 570.26 178.33 676.19 265.16 555.13 87.54 555.13 117.8 524.87 299.39 343.27 269.87 476.1 269.03 479.54 265.32 494.61 355.43 494.62 355.59 494.62" class="cls-1"/>
  <g>
    <path d="M494.22,533.55v-.87c17.39-5.99,26.09-19.42,26.09-40.29v-3.77c0-17.2-4.93-29.95-14.78-38.26-9.86-8.31-24.93-12.46-45.22-12.46h-61.17v202.92h64.93c20.48,0,35.65-4.59,45.51-13.77,9.86-9.18,14.78-23.24,14.78-42.18v-3.48c0-25.12-10.05-41.06-30.15-47.83ZM439.72,473.26h19.42c7.15,0,12.36,1.59,15.65,4.78,3.28,3.19,4.93,8.36,4.93,15.51v3.77c0,14.3-8.12,21.45-24.35,21.45h-15.65v-45.51ZM483.78,584.86c0,7.35-1.55,12.61-4.64,15.8-3.09,3.19-8.12,4.78-15.07,4.78h-24.35v-51.31h17.97c9.86,0,16.67,1.84,20.44,5.51,3.77,3.67,5.65,10.25,5.65,19.71v5.51Z" class="cls-1"/>
    <path d="M652.91,589.02c0,14.06-6.93,21.09-20.79,21.09s-20.8-7.03-20.8-21.09v-151.13h-41v148.78c0,18.94,5.22,33.54,15.67,43.79,10.44,10.25,25.53,15.38,45.25,15.38s34.85-5.13,45.4-15.38c10.54-10.25,15.81-24.84,15.81-43.79v-148.78h-39.54v151.13Z" class="cls-1"/>
    <path d="M814.56,521.3c-14.03-6.74-23.28-12.01-27.5-15.68-4.03-3.51-5.99-8.59-5.99-15.56,0-5.81,1.58-10.4,4.68-13.68,3.13-3.3,7.39-4.91,13.05-4.91,12.12,0,18.02,6.55,18.02,20v7.01h40.74v-7.3c0-17.61-5.13-31.58-15.26-41.53-10.13-9.92-24.86-14.96-43.78-14.96s-33.88,5.09-44.46,15.08c-10.63,10.04-16,23.78-16,40.83,0,14.67,3.25,26.94,9.66,36.47,6.58,9.47,18.45,18.36,35.28,26.38,14.03,7.12,23.19,12.58,27.26,16.29,3.78,3.27,5.7,8.88,5.7,16.69,0,6.16-1.75,10.97-5.21,14.34-3.51,3.42-8.07,5.09-13.94,5.09s-10.88-1.7-14.04-5.04c-3.21-3.37-4.83-8.2-4.83-14.39v-10.43h-40.74v10.43c0,17.43,5.28,31.32,15.71,41.26,10.4,9.92,25.36,14.95,44.46,14.95s34.54-5.12,45.32-15.22c10.81-10.13,16.29-24.2,16.29-41.84,0-15.2-3.15-27.84-9.35-37.54-6.2-9.69-18-18.69-35.07-26.75Z" class="cls-1"/>
    <polygon points="896.26 437.89 896.26 475.93 937.91 475.93 937.91 640.81 981.08 640.81 981.08 475.93 1022.73 475.93 1022.73 437.89 896.26 437.89" class="cls-1"/>
  </g>
  <g>
    <path d="M419.71,705.5c0-7.94.17-15.68.29-19.87h-.06c-1.08,6.75-4.83,25.89-7.32,38.36h-3.11c-1.91-10.53-5.81-31.14-6.84-38.37h-.12c.12,4.76.36,14.13.36,21.17v17.19h-2.92v-41.21h4.45c2.71,13.36,6.14,30.79,6.7,35.68h.06c.63-4.65,4.41-23.13,7.09-35.68h4.44v41.21h-3.02v-18.48Z" class="cls-1"/>
    <path d="M444.13,709.36l-2.33,14.62h-3.04l6.86-41.21h4.36l7.16,41.21h-3.18l-2.46-14.62h-7.36ZM451.05,706.58c-1.79-10.51-2.91-17.77-3.25-21.15h-.14c-.13,3.04-1.77,12.62-3.08,21.15h6.47Z" class="cls-1"/>
    <path d="M476.37,704.17v19.81h-3.02v-41.21h6.09c6.14,0,8.73,2.78,8.73,9.18v2.1c0,5.09-1.53,7.85-4.19,8.73,2.76.86,3.87,2.99,3.87,8.45,0,3.56-.06,10.08.42,12.75h-2.99c-.5-2.62-.43-9.66-.43-12.47,0-5.56-.82-7.33-5.18-7.33h-3.3ZM476.37,701.5h3.55c4.3,0,5.18-2.96,5.18-7.3v-2.12c0-4.16-1.28-6.64-5.77-6.64h-2.95v16.06Z" class="cls-1"/>
    <path d="M505.93,682.77h3.01v20.75h.06c1.8-3.72,6.88-14.37,9.82-20.75h3.26l-8.13,16.59,9.02,24.62h-3.28l-7.69-21.44-3.06,5.91v15.54h-3.01v-41.21Z" class="cls-1"/>
    <path d="M550.21,703.24h-9.37v17.96h10.53l-.45,2.78h-13.1v-41.21h12.94v2.79h-9.91v14.91h9.37v2.78Z" class="cls-1"/>
    <path d="M572.15,685.56h-6.7v-2.79h16.34v2.79h-6.61v38.42h-3.02v-38.42Z" class="cls-1"/>
    <path d="M600.33,682.77v41.21h-3.02v-41.21h3.02Z" class="cls-1"/>
    <path d="M619.14,723.98v-41.21h3.76c2.62,8.88,8.92,31.36,9.75,35.54h.11c-.2-5.87-.31-11.67-.31-18.35v-17.19h2.93v41.21h-3.66c-2.81-9.68-9.01-32.41-10.04-36.76h-.06c.26,4.95.45,12.22.45,19.68v17.09h-2.94Z" class="cls-1"/>
    <path d="M669.14,723.98h-2.47c-.08-.64-.2-2.93-.21-3.89-.96,3.28-3.27,4.41-5.97,4.41-5.44,0-7.26-4.08-7.26-10.4v-21.49c0-6.78,2.8-10.35,8.14-10.35,6.17,0,7.75,4.19,7.75,9.99v.85h-3.02v-.81c0-3.37-.36-7.26-4.77-7.26-3.25,0-4.99,1.96-4.99,7.6v21.35c0,4.59,1.13,7.78,4.63,7.78,4.49,0,5.12-4.31,5.12-10.27v-6.95h-5.25v-2.71h8.32v22.16Z" class="cls-1"/>
    <path d="M720.62,703.24h-9.37v17.96h10.53l-.45,2.78h-13.1v-41.21h12.94v2.79h-9.91v14.91h9.37v2.78Z" class="cls-1"/>
    <path d="M739.78,712.74v2.28c0,4.44,1.63,6.77,4.85,6.77s4.81-1.99,4.81-7.78c0-5.09-1.13-7.31-5.42-10.62-4.39-3.41-6.54-5.39-6.54-11.44,0-5.08,1.51-9.76,7.31-9.71,5.12.05,7.05,3.21,7.05,8.97v1.71h-3.01v-1.63c0-3.8-.79-6.34-4.11-6.34s-4.21,2.95-4.21,6.53c0,4.47.91,5.94,4.8,8.94,5.41,4.16,7.17,6.41,7.17,13.22,0,5.76-1.38,10.85-7.83,10.85-5.98,0-7.88-4.01-7.88-9.44v-2.31h3.02Z" class="cls-1"/>
    <path d="M773.11,685.56h-6.7v-2.79h16.34v2.79h-6.61v38.42h-3.02v-38.42Z" class="cls-1"/>
    <path d="M801.28,704.17v19.81h-3.02v-41.21h6.09c6.14,0,8.73,2.78,8.73,9.18v2.1c0,5.09-1.53,7.85-4.19,8.73,2.76.86,3.87,2.99,3.87,8.45,0,3.56-.06,10.08.42,12.75h-2.99c-.5-2.62-.43-9.66-.43-12.47,0-5.56-.82-7.33-5.18-7.33h-3.3ZM801.28,701.5h3.55c4.3,0,5.18-2.96,5.18-7.3v-2.12c0-4.16-1.28-6.64-5.77-6.64h-2.95v16.06Z" class="cls-1"/>
    <path d="M834.25,709.36l-2.33,14.62h-3.04l6.86-41.21h4.36l7.16,41.21h-3.18l-2.46-14.62h-7.36ZM841.17,706.58c-1.79-10.51-2.91-17.77-3.25-21.15h-.14c-.13,3.04-1.77,12.62-3.08,21.15h6.47Z" class="cls-1"/>
    <path d="M864.73,685.56h-6.7v-2.79h16.34v2.79h-6.61v38.42h-3.02v-38.42Z" class="cls-1"/>
    <path d="M902.26,703.24h-9.37v17.96h10.53l-.45,2.78h-13.1v-41.21h12.94v2.79h-9.91v14.91h9.37v2.78ZM904.33,673.85l-6.88,6.09h-3.1l5.99-6.09h4Z" class="cls-1"/>
    <path d="M935.12,723.98h-2.47c-.08-.64-.2-2.93-.21-3.89-.96,3.28-3.27,4.41-5.97,4.41-5.44,0-7.26-4.08-7.26-10.4v-21.49c0-6.78,2.8-10.35,8.14-10.35,6.17,0,7.75,4.19,7.75,9.99v.85h-3.02v-.81c0-3.37-.36-7.26-4.77-7.26-3.25,0-4.99,1.96-4.99,7.6v21.35c0,4.59,1.13,7.78,4.63,7.78,4.49,0,5.12-4.31,5.12-10.27v-6.95h-5.25v-2.71h8.32v22.16Z" class="cls-1"/>
    <path d="M956.39,682.77v41.21h-3.02v-41.21h3.02Z" class="cls-1"/>
    <path d="M989.62,712.5v1.25c0,5.6-1.05,10.74-7.63,10.74s-7.74-5.26-7.74-11.15v-21.09c0-6.76,2.8-10,7.76-10,6.35,0,7.43,4.77,7.43,9.95v1.45h-3.13v-1.48c0-3.63-.42-7.14-4.4-7.14-3.73,0-4.56,3.1-4.56,7.3v21.12c0,5.13,1.16,8.29,4.72,8.29,3.85,0,4.41-3.46,4.41-7.9v-1.33h3.14Z" class="cls-1"/>
    <path d="M1022.4,692.33v21.82c0,6.79-2.73,10.34-8.29,10.34-6.16,0-8.03-4.23-8.03-10.32v-21.8c0-6.38,2.64-10.12,8.25-10.12,5.98,0,8.07,4.54,8.07,10.07ZM1009.18,692.42v21.84c0,5.47,1.99,7.48,5.08,7.48s5.04-1.99,5.04-7.74v-21.53c0-5.14-1.85-7.44-5.09-7.44-3.44,0-5.03,2.22-5.03,7.39Z" class="cls-1"/>
  </g>
</svg>