<?xml version="1.0" encoding="UTF-8"?>
<svg id="Capa_1" data-name="Capa 1" xmlns="http://www.w3.org/2000/svg" viewBox="0 0 1080 1080">
  <defs>
    <style>
      .cls-1 {
        fill: #fff;
      }
    </style>
  </defs>
  <polygon class="cls-1" points="355.59 494.62 342.63 509.73 224.04 509.73 269.13 403.81 160.59 524.87 329.66 524.87 257.8 608.7 148.07 736.73 182.22 600.54 182.22 600.53 182.06 600.53 185.89 585.38 57.27 585.38 72.4 570.26 223.73 570.26 178.33 676.19 265.16 555.13 87.54 555.13 117.8 524.87 299.39 343.27 269.87 476.1 269.03 479.54 265.32 494.61 355.43 494.62 355.59 494.62"/>
  <g>
    <path class="cls-1" d="M494.22,533.55v-.87c17.39-5.99,26.09-19.42,26.09-40.29v-3.77c0-17.2-4.93-29.95-14.78-38.26-9.86-8.31-24.93-12.46-45.22-12.46h-61.17v202.92h64.93c20.48,0,35.65-4.59,45.51-13.77,9.86-9.18,14.78-23.24,14.78-42.18v-3.48c0-25.12-10.05-41.06-30.15-47.83ZM439.72,473.26h19.42c7.15,0,12.36,1.59,15.65,4.78,3.28,3.19,4.93,8.36,4.93,15.51v3.77c0,14.3-8.12,21.45-24.35,21.45h-15.65v-45.51ZM483.78,584.86c0,7.35-1.55,12.61-4.64,15.8-3.09,3.19-8.12,4.78-15.07,4.78h-24.35v-51.31h17.97c9.86,0,16.67,1.84,20.44,5.51,3.77,3.67,5.65,10.25,5.65,19.71v5.51Z"/>
    <path class="cls-1" d="M652.91,589.02c0,14.06-6.93,21.09-20.79,21.09s-20.8-7.03-20.8-21.09v-151.13h-41v148.78c0,18.94,5.22,33.54,15.67,43.79,10.44,10.25,25.53,15.38,45.25,15.38s34.85-5.13,45.4-15.38c10.54-10.25,15.81-24.84,15.81-43.79v-148.78h-39.54v151.13Z"/>
    <path class="cls-1" d="M814.56,521.3c-14.03-6.74-23.28-12.01-27.5-15.68-4.03-3.51-5.99-8.59-5.99-15.56,0-5.81,1.58-10.4,4.68-13.68,3.13-3.3,7.39-4.91,13.05-4.91,12.12,0,18.02,6.55,18.02,20v7.01h40.74v-7.3c0-17.61-5.13-31.58-15.26-41.53-10.13-9.92-24.86-14.96-43.78-14.96s-33.88,5.09-44.46,15.08c-10.63,10.04-16,23.78-16,40.83,0,14.67,3.25,26.94,9.66,36.47,6.58,9.47,18.45,18.36,35.28,26.38,14.03,7.12,23.19,12.58,27.26,16.29,3.78,3.27,5.7,8.88,5.7,16.69,0,6.16-1.75,10.97-5.21,14.34-3.51,3.42-8.07,5.09-13.94,5.09s-10.88-1.7-14.04-5.04c-3.21-3.37-4.83-8.2-4.83-14.39v-10.43h-40.74v10.43c0,17.43,5.28,31.32,15.71,41.26,10.4,9.92,25.36,14.95,44.46,14.95s34.54-5.12,45.32-15.22c10.81-10.13,16.29-24.2,16.29-41.84,0-15.2-3.15-27.84-9.35-37.54-6.2-9.69-18-18.69-35.07-26.75Z"/>
    <polygon class="cls-1" points="896.26 437.89 896.26 475.93 937.91 475.93 937.91 640.81 981.08 640.81 981.08 475.93 1022.73 475.93 1022.73 437.89 896.26 437.89"/>
  </g>
</svg>